<svg xmlns="http://www.w3.org/2000/svg" xmlns:xlink="http://www.w3.org/1999/xlink" width="132.004" height="132" xmlns:v="https://vecta.io/nano"><defs><radialGradient id="A" cx="158.429" cy="578.088" r="65" gradientTransform="matrix(0 -1.98198 1.8439 0 -1031.402 454.004)" fx="158.429" fy="578.088" gradientUnits="userSpaceOnUse"><stop offset="0" stop-color="#fd5"/><stop offset=".1" stop-color="#fd5"/><stop offset=".5" stop-color="#ff543e"/><stop offset="1" stop-color="#c837ab"/></radialGradient><radialGradient id="B" cx="147.694" cy="473.455" r="65" gradientTransform="matrix(0.17394,0.86872,-3.5818,0.71718,1648.348,-458.493)" fx="147.694" fy="473.455" gradientUnits="userSpaceOnUse"><stop offset="0" stop-color="#3771c8"/><stop stop-color="#3771c8" offset=".128"/><stop offset="1" stop-color="#60f" stop-opacity="0"/></radialGradient><path id="C" d="M65.03 0L28.407.156c-5.57.463-9.036 1.34-12.812 3.22a25.95 25.95 0 0 0-7.47 5.468C4 13.126 1.5 18.394.595 24.656c-.44 3.04-.568 3.66-.594 19.188v21.125l.16 36.59c.45 5.42 1.3 8.83 3.1 12.56 3.44 7.14 10.01 12.5 17.75 14.5 2.68.69 5.64 1.07 9.44 1.25 1.61.07 18.02.12 34.44.12l34.41-.1c4.4-.207 6.955-.55 9.78-1.28a27.22 27.22 0 0 0 17.75-14.53c1.765-3.64 2.66-7.18 3.065-12.317.088-1.12.125-18.977.125-36.81l-.128-36.78c-.41-5.22-1.305-8.73-3.127-12.44-1.495-3.037-3.155-5.305-5.565-7.624C116.9 4 111.64 1.5 105.372.596 102.335.157 101.73.027 86.19 0H65.03z"/></defs><g transform="translate(1.004 1)"><use xlink:href="#C" fill="url(#A)"/><use xlink:href="#C" fill="url(#B)"/></g><path fill="#fff" d="M66.004 18c-13.036 0-14.672.057-19.792.29-5.11.234-8.598 1.043-11.65 2.23a23.5 23.5 0 0 0-8.503 5.535c-2.67 2.668-4.31 5.346-5.54 8.502-1.19 3.053-2 6.542-2.23 11.65C18.06 51.327 18 52.964 18 66l.29 19.787c.235 5.11 1.044 8.598 2.23 11.65 1.227 3.157 2.867 5.835 5.536 8.503a23.5 23.5 0 0 0 8.5 5.54c3.054 1.187 6.543 1.996 11.652 2.23 5.12.233 6.755.29 19.79.29s14.668-.057 19.788-.29c5.11-.234 8.602-1.043 11.656-2.23a23.48 23.48 0 0 0 8.497-5.54c2.67-2.668 4.31-5.346 5.54-8.502 1.18-3.053 1.99-6.542 2.23-11.65.23-5.12.29-6.752.29-19.788l-.29-19.792c-.24-5.11-1.05-8.598-2.23-11.65-1.23-3.157-2.87-5.835-5.54-8.503s-5.34-4.31-8.5-5.535c-3.06-1.187-6.55-1.996-11.66-2.23-5.12-.233-6.75-.29-19.79-.29zm-4.306 8.65h4.306l19.396.276c4.68.214 7.22.996 8.912 1.653a14.84 14.84 0 0 1 5.516 3.59c1.68 1.68 2.72 3.28 3.592 5.52.657 1.69 1.44 4.23 1.653 8.91.23 5.06.28 6.58.28 19.39l-.28 19.39c-.214 4.68-.996 7.22-1.653 8.91-.87 2.24-1.912 3.835-3.592 5.514a14.84 14.84 0 0 1-5.516 3.59c-1.69.66-4.232 1.44-8.912 1.654-5.06.23-6.58.28-19.396.28s-14.336-.05-19.396-.28c-4.68-.216-7.22-.998-8.913-1.655-2.24-.87-3.84-1.91-5.52-3.59s-2.72-3.276-3.592-5.517c-.657-1.69-1.44-4.23-1.653-8.91-.23-5.06-.276-6.58-.276-19.398l.276-19.39c.214-4.68.996-7.22 1.653-8.912.87-2.24 1.912-3.84 3.592-5.52s3.28-2.72 5.52-3.592c1.692-.66 4.233-1.44 8.913-1.655 4.428-.2 6.144-.26 15.09-.27zm29.928 7.97a5.76 5.76 0 0 0-5.76 5.758c0 3.18 2.58 5.76 5.76 5.76s5.76-2.58 5.76-5.76-2.58-5.76-5.76-5.76zm-25.622 6.73c-13.613 0-24.65 11.037-24.65 24.65s11.037 24.645 24.65 24.645S90.65 79.613 90.65 66 79.616 41.35 66.003 41.35zm0 8.65c8.836 0 16 7.163 16 16s-7.164 16-16 16-16-7.164-16-16 7.163-16 16-16z"/></svg>